<svg width="512" height="512" viewBox="0 0 512 512" fill="none" xmlns="http://www.w3.org/2000/svg">
<rect width="512" height="512" fill="white"/>
<path d="M412.808 313.751L344.93 381.629C331.457 395.102 309.613 395.102 296.14 381.629V381.629C282.666 368.156 260.822 368.156 247.349 381.629L180.17 448.808" stroke="#4EC4EA" stroke-width="50"/>
<path d="M197.848 98.7902L130.323 166.315C116.655 179.983 116.655 202.144 130.323 215.812V215.812C143.991 229.481 143.991 251.641 130.323 265.31L63.4975 332.135" stroke="#E7493E" stroke-width="50"/>
<path d="M141.279 409.917L256.586 294.61C268.302 282.894 287.297 282.894 299.013 294.61L305.377 300.974C317.092 312.69 336.087 312.69 347.803 300.974L434.728 214.049" stroke="#58E477" stroke-width="50"/>
<path d="M102.387 371.026L383.414 90.0003" stroke="#E9D631" stroke-width="50"/>
</svg>
